<?xml version="1.0" encoding="UTF-8"?>
<svg width="216px" height="205px" viewBox="0 0 216 205" version="1.1" xmlns="http://www.w3.org/2000/svg" xmlns:xlink="http://www.w3.org/1999/xlink">
    <!-- Generator: Sketch 52.6 (67491) - http://www.bohemiancoding.com/sketch -->
    <title>conf-ruby</title>
    <desc>Created with Sketch.</desc>
    <g id="Page-1" stroke="none" stroke-width="1" fill="none" fill-rule="evenodd">
        <g id="rubyparis-desktop-copy" transform="translate(-678.000000, -3466.000000)" fill="#FFFFFF" fill-rule="nonzero">
            <g id="conference" transform="translate(150.000000, 3426.000000)">
                <g id="Group-6" transform="translate(48.000000, 40.000000)">
                    <path d="M643.779922,61.7492615 L643.919559,61.749862 L643.904098,61.894979 L695.404623,122.329545 L687.353808,204.114322 L480.639735,204.114322 L480.714763,203.652753 L480.702841,203.657436 L480.718212,203.631533 L513.757318,0.375888179 L517.078637,0.588015777 L517.206157,0.479749396 L517.310658,0.602834615 L595.953024,5.62560341 L643.779922,61.7492615 Z M568.951792,61.4274552 L637.858763,61.7237969 L593.768916,9.98547434 L521.349716,5.36016971 L568.951792,61.4274552 Z M572.77807,65.9341697 L631.579198,135.192067 L638.927811,66.2186537 L572.77807,65.9341697 Z M635.591347,139.917706 L683.595511,196.458584 L690.749018,123.789176 L643.248485,68.0484999 L635.591347,139.917706 Z M633.020484,143.827431 L490.971061,199.624104 L680.392805,199.624104 L633.020484,143.827431 Z M629.948982,140.209715 L567.337084,66.4633703 L491.243925,194.692728 L629.948982,140.209715 Z M564.263823,62.843582 L517.168975,7.37372695 L486.983592,193.073349 L564.263823,62.843582 Z" id="conf-ruby"></path>
                </g>
            </g>
        </g>
    </g>
</svg>