<?xml version="1.0" encoding="UTF-8"?>
<svg width="308px" height="428px" viewBox="0 0 308 428" version="1.1" xmlns="http://www.w3.org/2000/svg" xmlns:xlink="http://www.w3.org/1999/xlink">
    <!-- Generator: Sketch 52.6 (67491) - http://www.bohemiancoding.com/sketch -->
    <title>Combined Shape</title>
    <desc>Created with Sketch.</desc>
    <g id="Page-1" stroke="none" stroke-width="1" fill="none" fill-rule="evenodd">
        <g id="rubyparis-desktop" transform="translate(-198.000000, -4030.000000)" fill="#E86F69" fill-rule="nonzero">
            <g id="youtube-section-copy" transform="translate(198.000000, 4030.000000)">
                <g id="youtube-picture">
                    <path d="M2.55795385e-13,127.81867 L149.39342,-2.55795385e-13 L293.107197,127.81867 L307.994206,331.40044 L166.490155,428 L31,348 L2.55795385e-13,127.81867 Z M214.374709,202.125112 L201.874739,202.125112 L201.874739,189.625142 C201.874739,188.713684 201.581771,187.964989 200.995835,187.379053 C200.409899,186.793117 199.661204,186.500149 198.749747,186.500149 L192.499762,186.500149 C191.588304,186.500149 190.839609,186.793117 190.253673,187.379053 C189.667737,187.964989 189.374769,188.713684 189.374769,189.625142 L189.374769,202.125112 L176.874799,202.125112 C175.963342,202.125112 175.214647,202.41808 174.62871,203.004016 C174.042774,203.589952 173.749806,204.338647 173.749806,205.250104 L173.749806,211.500089 C173.749806,212.411547 174.042774,213.160242 174.62871,213.746178 C175.214647,214.332114 175.963342,214.625082 176.874799,214.625082 L189.374769,214.625082 L189.374769,227.125052 C189.374769,228.036509 189.667737,228.785204 190.253673,229.371141 C190.839609,229.957077 191.588304,230.250045 192.499762,230.250045 L198.749747,230.250045 C199.661204,230.250045 200.409899,229.957077 200.995835,229.371141 C201.581771,228.785204 201.874739,228.036509 201.874739,227.125052 L201.874739,214.625082 L214.374709,214.625082 C215.286167,214.625082 216.034862,214.332114 216.620798,213.746178 C217.206734,213.160242 217.499702,212.411547 217.499702,211.500089 L217.499702,205.250104 C217.499702,204.338647 217.206734,203.589952 216.620798,203.004016 C216.034862,202.41808 215.286167,202.125112 214.374709,202.125112 Z M136.249896,211.500089 C140.807175,211.500089 145.006384,210.39332 148.847522,208.179785 C152.68866,205.966249 155.715996,202.938913 157.929532,199.097775 C160.143067,195.256638 161.249836,191.057429 161.249836,186.500149 C161.249836,181.942869 160.143067,177.74366 157.929532,173.902523 C155.715996,170.061385 152.68866,167.034049 148.847522,164.820513 C145.006384,162.606978 140.807175,161.500209 136.249896,161.500209 C131.692616,161.500209 127.493407,162.606978 123.652269,164.820513 C119.811132,167.034049 116.783795,170.061385 114.57026,173.902523 C112.356724,177.74366 111.249955,181.942869 111.249955,186.500149 C111.249955,191.057429 112.356724,195.256638 114.57026,199.097775 C116.783795,202.938913 119.811132,205.966249 123.652269,208.179785 C127.493407,210.39332 131.692616,211.500089 136.249896,211.500089 Z M153.827979,217.750075 L150.507674,217.750075 C145.950394,219.833404 141.1978,220.875067 136.249896,220.875067 C131.301992,220.875067 126.549397,219.833404 121.992117,217.750075 L118.671813,217.750075 C113.984324,217.750075 109.622356,218.921947 105.585906,221.265691 C101.549457,223.609436 98.359361,226.799531 96.0156166,230.835981 C93.6718722,234.872431 92.5,239.234398 92.5,243.921887 L92.5,252.124993 C92.5,254.729152 93.4114572,256.94269 95.2343685,258.765602 C97.0572798,260.588513 99.2708182,261.49997 101.874978,261.49997 L170.624814,261.49997 C173.228973,261.49997 175.442512,260.588513 177.265423,258.765602 C179.088334,256.94269 179.999791,254.729152 179.999791,252.124993 L179.999791,243.921887 C179.999791,239.234398 178.827919,234.872431 176.484175,230.835981 C174.14043,226.799531 170.950335,223.609436 166.913885,221.265691 C162.877435,218.921947 158.515468,217.750075 153.827979,217.750075 Z" id="Combined-Shape"></path>
                </g>
            </g>
        </g>
    </g>
</svg>