<?xml version="1.0" encoding="UTF-8"?>
<svg width="312px" height="396px" viewBox="0 0 312 396" version="1.1" xmlns="http://www.w3.org/2000/svg" xmlns:xlink="http://www.w3.org/1999/xlink">
    <!-- Generator: Sketch 52.6 (67491) - http://www.bohemiancoding.com/sketch -->
    <title>Combined Shape</title>
    <desc>Created with Sketch.</desc>
    <g id="Page-1" stroke="none" stroke-width="1" fill="none" fill-rule="evenodd">
        <g id="rubyparis-desktop" transform="translate(-929.000000, -4749.000000)" fill="#EBAAA8" fill-rule="nonzero">
            <g id="slack-section" transform="translate(198.000000, 4749.000000)">
                <g id="slack-picture" transform="translate(731.000000, 0.000000)">
                    <path d="M45.9630044,93.4632645 L134.509553,-3.41060513e-13 L276.026318,40.899345 L311.088799,330.956903 L91.2795332,395.580044 L-3.69482223e-13,235.860928 L45.9630044,93.4632645 Z M151.281118,191.664187 L137.687401,196.195426 L142.21864,209.33602 L155.812357,204.804781 L151.281118,191.664187 Z M160.796721,246.945305 C172.577942,243.471357 181.376097,239.27996 187.191189,234.371117 C193.00628,229.462273 196.366948,223.231819 197.273196,215.679755 C198.179444,208.127691 196.857834,198.423285 193.308362,186.566543 C189.75889,174.709802 185.529736,165.873885 180.620892,160.058794 C175.712048,154.243702 169.481594,150.883035 161.92953,149.976787 C154.377466,149.070539 144.67306,150.392149 132.816318,153.941621 C120.959577,157.491093 112.123661,161.720247 106.308569,166.629091 C100.493478,171.537934 97.1328098,177.768388 96.226562,185.320452 C95.3203141,192.872517 96.6419244,202.576923 100.191396,214.433664 C103.740868,226.290406 107.970022,235.126322 112.878866,240.941414 C117.78771,246.756505 124.018164,250.117173 131.570228,251.023421 C139.122292,251.929669 148.864456,250.570297 160.796721,246.945305 Z M178.921677,202.539161 C179.374801,203.898533 179.299282,205.220143 178.695115,206.503996 C178.090949,207.787848 177.109182,208.731854 175.74981,209.33602 L169.179513,211.375078 L171.218571,218.171937 C171.671695,219.682351 171.596175,221.079481 170.992009,222.363333 C170.387842,223.647185 169.368314,224.515671 167.933422,224.968795 C166.498531,225.421919 165.139159,225.308638 163.855307,224.628952 C162.571455,223.949267 161.702968,222.929738 161.249844,221.570366 L158.984225,214.773507 L145.617069,219.304746 L147.882689,226.101605 C148.335813,227.460977 148.222532,228.820349 147.542846,230.17972 C146.86316,231.539092 145.80587,232.407579 144.370978,232.785183 C142.936087,233.162787 141.576715,233.011745 140.292863,232.332059 C139.009011,231.652373 138.216044,230.708364 137.913963,229.500035 L135.648343,222.703176 L132.476476,223.609424 C129.455651,224.666714 127.718674,225.195357 127.26555,225.195357 C126.057221,225.044315 124.999931,224.666714 124.093683,224.062548 C123.187435,223.458381 122.583269,222.627656 122.281187,221.570366 C121.828063,220.059952 121.941344,218.662822 122.62103,217.37897 C123.300716,216.095117 124.320245,215.226631 125.679617,214.773507 L132.249914,212.73445 L127.945236,199.593856 L124.773369,200.500104 C121.752544,201.557394 120.015568,202.086037 119.562444,202.086037 C118.354115,201.934995 117.296824,201.557394 116.390576,200.953228 C115.484329,200.349061 114.880162,199.518336 114.578081,198.461046 C114.124957,197.101674 114.238238,195.742303 114.917924,194.382931 C115.59761,193.023559 116.617138,192.117311 117.97651,191.664187 L124.546807,189.62513 L122.281187,182.828271 C121.828063,181.317857 121.903583,179.920727 122.507749,178.636875 C123.111916,177.353022 124.131444,176.484536 125.566336,176.031412 C127.001227,175.578288 128.360599,175.691569 129.644451,176.371255 C130.928303,177.050941 131.79679,178.07047 132.249914,179.429841 L134.515533,186.2267 L148.109251,181.695461 L145.843631,174.898602 C145.390507,173.53923 145.466027,172.179859 146.070193,170.820487 C146.67436,169.461115 147.693888,168.554867 149.12878,168.101743 C150.563671,167.64862 151.923043,167.761901 153.206895,168.441586 C154.490747,169.121272 155.359233,170.140801 155.812357,171.500173 L158.077977,178.297032 L164.648274,176.031412 C166.007646,175.729331 167.329256,175.88037 168.613108,176.484536 C169.89696,177.088702 170.765447,178.07047 171.218571,179.429841 C171.671695,180.789213 171.596175,182.148585 170.992009,183.507957 C170.387842,184.867328 169.406075,185.773576 168.046703,186.2267 L161.476406,188.265758 L165.781084,201.406352 L172.35138,199.140732 C173.710752,198.687608 175.032363,198.800889 176.316215,199.480575 C177.600067,200.160261 178.468553,201.17979 178.921677,202.539161 Z" id="Combined-Shape"></path>
                </g>
            </g>
        </g>
    </g>
</svg>