<?xml version="1.0" encoding="UTF-8"?>
<svg width="308px" height="420px" viewBox="0 0 308 420" version="1.1" xmlns="http://www.w3.org/2000/svg" xmlns:xlink="http://www.w3.org/1999/xlink">
    <!-- Generator: Sketch 52.6 (67491) - http://www.bohemiancoding.com/sketch -->
    <title>Combined Shape</title>
    <desc>Created with Sketch.</desc>
    <g id="Page-1" stroke="none" stroke-width="1" fill="none" fill-rule="evenodd">
        <g id="rubyparis-desktop" transform="translate(-933.000000, -1912.000000)" fill="#E48B89" fill-rule="nonzero">
            <g id="team" transform="translate(198.000000, 1898.000000)">
                <g id="slack-picture" transform="translate(735.000000, 14.000000)">
                    <path d="M-1.13686838e-13,99 L109,0.565326306 L272.084869,38.6411274 L308,149.309132 L222.899177,408.319196 L138.997896,420 L-1.13686838e-13,285 L-1.13686838e-13,99 Z M131.999862,195.750086 C131.999862,199.828202 133.396995,203.264393 136.191258,206.058656 C138.985521,208.852919 142.421712,210.250052 146.499827,210.250052 C150.577942,210.250052 154.014133,208.852919 156.808396,206.058656 C159.602659,203.264393 160.999793,199.828202 160.999793,195.750086 C160.999793,191.671971 159.602659,188.23578 156.808396,185.441517 C154.014133,182.647254 150.577942,181.250121 146.499827,181.250121 C142.421712,181.250121 138.985521,182.647254 136.191258,185.441517 C133.396995,188.23578 131.999862,191.671971 131.999862,195.750086 Z M182.749741,195.750086 C182.749741,199.828202 184.146874,203.264393 186.941137,206.058656 C189.7354,208.852919 193.171591,210.250052 197.249706,210.250052 C201.327821,210.250052 204.764012,208.852919 207.558275,206.058656 C210.352538,203.264393 211.749672,199.828202 211.749672,195.750086 C211.749672,191.671971 210.352538,188.23578 207.558275,185.441517 C204.764012,182.647254 201.327821,181.250121 197.249706,181.250121 C193.171591,181.250121 189.7354,182.647254 186.941137,185.441517 C184.146874,188.23578 182.749741,191.671971 182.749741,195.750086 Z M95.7499481,210.250052 C99.8280634,210.250052 103.264254,208.852919 106.058517,206.058656 C108.85278,203.264393 110.249914,199.828202 110.249914,195.750086 C110.249914,191.671971 108.85278,188.23578 106.058517,185.441517 C103.264254,182.647254 99.8280634,181.250121 95.7499481,181.250121 C91.6718329,181.250121 88.235642,182.647254 85.441379,185.441517 C82.647116,188.23578 81.2499827,191.671971 81.2499827,195.750086 C81.2499827,199.828202 82.647116,203.264393 85.441379,206.058656 C88.235642,208.852919 91.6718329,210.250052 95.7499481,210.250052 Z M204.499689,217.500035 L189.999723,217.500035 C185.921608,217.500035 182.485417,218.897168 179.691154,221.691431 C176.896891,224.485694 175.499758,227.921885 175.499758,232 L175.499758,239.249983 C175.499758,241.213521 176.217205,242.912736 177.652097,244.347627 C179.086988,245.782518 180.786203,246.499965 182.749741,246.499965 L211.749672,246.499965 C213.71321,246.499965 215.412424,245.782518 216.847316,244.347627 C218.282207,242.912736 218.999654,241.213521 218.999654,239.249983 L218.999654,232 C218.999654,227.921885 217.602521,224.485694 214.808258,221.691431 C212.013995,218.897168 208.577804,217.500035 204.499689,217.500035 Z M153.74981,217.500035 L139.249844,217.500035 C135.171729,217.500035 131.735538,218.897168 128.941275,221.691431 C126.147012,224.485694 124.749879,227.921885 124.749879,232 L124.749879,239.249983 C124.749879,241.213521 125.467326,242.912736 126.902218,244.347627 C128.337109,245.782518 130.036324,246.499965 131.999862,246.499965 L160.999793,246.499965 C162.963331,246.499965 164.662545,245.782518 166.097437,244.347627 C167.532328,242.912736 168.249775,241.213521 168.249775,239.249983 L168.249775,232 C168.249775,227.921885 166.852642,224.485694 164.058379,221.691431 C161.264116,218.897168 157.827925,217.500035 153.74981,217.500035 Z M102.999931,217.500035 L88.4999654,217.500035 C84.4218502,217.500035 80.9856593,218.897168 78.1913963,221.691431 C75.3971332,224.485694 74,227.921885 74,232 L74,239.249983 C74,241.213521 74.7174474,242.912736 76.1523386,244.347627 C77.5872299,245.782518 79.2864446,246.499965 81.2499827,246.499965 L110.249914,246.499965 C112.213452,246.499965 113.912666,245.782518 115.347558,244.347627 C116.782449,242.912736 117.499896,241.213521 117.499896,239.249983 L117.499896,232 C117.499896,227.921885 116.102763,224.485694 113.3085,221.691431 C110.514237,218.897168 107.078046,217.500035 102.999931,217.500035 Z M95.7499481,145.000207 L197.249706,145.000207 L197.249706,174.000138 C202.687193,174.000138 207.520514,175.888153 211.749672,179.664187 L211.749672,141.82834 C211.749672,138.656473 210.692381,135.975491 208.577804,133.78539 C206.463227,131.59529 203.895522,130.500242 200.874698,130.500242 L92.1249568,130.500242 C89.1041318,130.500242 86.5364273,131.59529 84.4218502,133.78539 C82.307273,135.975491 81.2499827,138.656473 81.2499827,141.82834 L81.2499827,179.664187 C85.4791405,175.888153 90.3124611,174.000138 95.7499481,174.000138 L95.7499481,145.000207 Z" id="Combined-Shape"></path>
                </g>
            </g>
        </g>
    </g>
</svg>