<?xml version="1.0" encoding="UTF-8"?>
<svg width="246px" height="357px" viewBox="0 0 246 357" version="1.1" xmlns="http://www.w3.org/2000/svg" xmlns:xlink="http://www.w3.org/1999/xlink">
    <!-- Generator: Sketch 52.6 (67491) - http://www.bohemiancoding.com/sketch -->
    <title>Combined Shape</title>
    <desc>Created with Sketch.</desc>
    <g id="Page-1" stroke="none" stroke-width="1" fill="none" fill-rule="evenodd">
        <g id="rubyparis-desktop" transform="translate(-198.000000, -2909.000000)" fill="#D26461" fill-rule="nonzero">
            <g id="youtube-section" transform="translate(198.000000, 2909.000000)">
                <g id="youtube-picture">
                    <path d="M2.55795385e-13,78.8186699 L43.604852,22.2236161 L175.504999,-1.98951966e-13 L245.623354,88.8186699 L208.460626,282.40044 L100.601058,356.968185 L13.9986287,272.40044 L2.55795385e-13,78.8186699 Z M172.421619,136.718901 C171.77058,134.375156 170.598708,132.356933 168.906002,130.664228 C167.213297,128.971523 165.195074,127.79965 162.851329,127.148611 C159.465922,126.237154 151.523231,125.586115 139.023261,125.195491 L121.249866,125.000179 L103.476471,125.195491 C90.9765006,125.586115 83.0338102,126.237154 79.6484026,127.148611 C77.3046582,127.79965 75.2864348,128.971523 73.5937295,130.664228 C71.9010242,132.356933 70.729152,134.375156 70.0781129,136.718901 C69.1666557,140.234517 68.5156166,145.573045 68.1249925,152.734488 C67.9947835,156.380313 67.9296805,159.635512 67.9296805,162.500089 L68.1249925,172.265691 C68.5156166,179.557339 69.1666557,184.960973 70.0781129,188.47659 C70.729152,190.690125 71.9010242,192.643246 73.5937295,194.335951 C75.2864348,196.028656 77.3046582,197.200529 79.6484026,197.851568 C83.0338102,198.763025 90.9765006,199.414064 103.476471,199.804688 L121.249866,200 L139.023261,199.804688 C151.523231,199.414064 159.465922,198.763025 162.851329,197.851568 C165.195074,197.200529 167.213297,196.028656 168.906002,194.335951 C170.598708,192.643246 171.77058,190.690125 172.421619,188.47659 C173.333076,184.960973 173.984115,179.557339 174.374739,172.265691 L174.570051,162.500089 L174.374739,152.734488 C173.984115,145.573045 173.333076,140.234517 172.421619,136.718901 Z M110.312392,178.515676 L110.312392,146.679815 L138.242013,162.500089 L110.312392,178.515676 Z" id="Combined-Shape"></path>
                </g>
            </g>
        </g>
    </g>
</svg>