<?xml version="1.0" standalone="no"?>
<!DOCTYPE svg PUBLIC "-//W3C//DTD SVG 20010904//EN"
 "http://www.w3.org/TR/2001/REC-SVG-20010904/DTD/svg10.dtd">
<svg version="1.0" xmlns="http://www.w3.org/2000/svg"
 width="285.000000pt" height="285.000000pt" viewBox="0 0 285.000000 285.000000"
 preserveAspectRatio="xMidYMid meet">
<metadata>
Created by potrace 1.14, written by Peter Selinger 2001-2017
</metadata>
<g transform="translate(0.000000,285.000000) scale(0.100000,-0.100000)"
fill="#000000" stroke="none">
<path d="M1303 2513 c-382 -599 -898 -1407 -1016 -1590 l-136 -212 289 -281
289 -280 108 0 108 1 79 130 c70 117 77 133 71 165 -5 30 -3 36 14 41 28 7 27
29 -1 45 -22 12 -20 13 27 18 l49 5 44 135 c42 131 45 151 40 235 -2 32 1 42
18 49 18 8 22 26 37 150 39 324 71 892 54 954 -11 44 0 109 24 133 10 10 19
33 19 49 0 17 5 30 10 30 6 0 10 -13 10 -30 0 -16 9 -39 19 -49 24 -24 35 -89
24 -133 -17 -61 9 -537 48 -893 20 -180 22 -191 46 -211 22 -17 25 -25 19 -55
-13 -60 -8 -91 36 -229 l44 -135 49 -5 c47 -5 49 -6 28 -18 -29 -16 -30 -38
-2 -45 17 -5 19 -11 14 -41 -6 -31 1 -48 72 -165 l78 -130 108 -1 109 0 151
148 c84 81 214 207 290 280 l138 133 -636 994 c-350 547 -640 995 -645 995 -4
0 -62 -84 -127 -187z"/>
<path d="M1376 758 c-3 -7 -12 -50 -21 -95 -8 -46 -18 -90 -21 -98 -5 -13 10
-15 106 -15 109 0 111 0 105 21 -4 12 -15 60 -24 108 l-17 86 -62 3 c-44 2
-63 -1 -66 -10z"/>
<path d="M1365 319 c-103 -11 -182 -54 -215 -119 -11 -22 -20 -42 -20 -45 0
-3 135 -5 300 -5 165 0 300 2 300 5 0 3 -9 24 -20 46 -46 89 -182 136 -345
118z"/>
</g>
</svg>
